<mxfile host="app.diagrams.net" modified="2024-06-22T16:45:38.523Z" agent="Mozilla/5.0 (Windows NT 10.0; Win64; x64; rv:127.0) Gecko/20100101 Firefox/127.0" etag="TnZvbvBlSzVzqvQ6EMqE" version="24.6.1" type="google">
  <diagram name="Page-1" id="pRJ9wv-TXC5aZPvmGpGn">
    <mxGraphModel grid="1" page="1" gridSize="10" guides="1" tooltips="1" connect="1" arrows="1" fold="1" pageScale="1" pageWidth="827" pageHeight="1169" math="0" shadow="0">
      <root>
        <mxCell id="0" />
        <mxCell id="1" parent="0" />
        <mxCell id="PCjDmUl9RRCxelBDHCm8-122" value="" style="rounded=1;whiteSpace=wrap;html=1;fontFamily=Times New Roman;fontSize=16;verticalAlign=top;fillColor=none;strokeColor=#FF0000;dashed=1;dashPattern=12 12;fontColor=#FF0000;align=left;" vertex="1" parent="1">
          <mxGeometry x="400" y="40" width="1080" height="220" as="geometry" />
        </mxCell>
        <mxCell id="PCjDmUl9RRCxelBDHCm8-1" style="edgeStyle=orthogonalEdgeStyle;rounded=0;orthogonalLoop=1;jettySize=auto;html=1;entryX=0.5;entryY=0;entryDx=0;entryDy=0;" edge="1" parent="1" source="PCjDmUl9RRCxelBDHCm8-2" target="PCjDmUl9RRCxelBDHCm8-4">
          <mxGeometry relative="1" as="geometry" />
        </mxCell>
        <mxCell id="PCjDmUl9RRCxelBDHCm8-2" value="&lt;font style=&quot;font-size: 14px;&quot;&gt;Начало&lt;/font&gt;" style="ellipse;whiteSpace=wrap;html=1;fontFamily=Times New Roman;fontSize=14;fillColor=#d5e8d4;strokeColor=#82b366;" vertex="1" parent="1">
          <mxGeometry x="125" y="40" width="80" height="80" as="geometry" />
        </mxCell>
        <mxCell id="PCjDmUl9RRCxelBDHCm8-3" style="edgeStyle=orthogonalEdgeStyle;rounded=0;orthogonalLoop=1;jettySize=auto;html=1;entryX=0.5;entryY=0;entryDx=0;entryDy=0;" edge="1" parent="1" source="PCjDmUl9RRCxelBDHCm8-4" target="PCjDmUl9RRCxelBDHCm8-12">
          <mxGeometry relative="1" as="geometry" />
        </mxCell>
        <mxCell id="PCjDmUl9RRCxelBDHCm8-4" value="Инициализация на потребителския интерфейс" style="rounded=1;whiteSpace=wrap;html=1;fontFamily=Times New Roman;fontSize=14;fillColor=#fff2cc;strokeColor=#d6b656;" vertex="1" parent="1">
          <mxGeometry x="105" y="140" width="120" height="70" as="geometry" />
        </mxCell>
        <mxCell id="PCjDmUl9RRCxelBDHCm8-110" style="edgeStyle=orthogonalEdgeStyle;rounded=0;orthogonalLoop=1;jettySize=auto;html=1;entryX=0;entryY=0.5;entryDx=0;entryDy=0;" edge="1" parent="1" source="PCjDmUl9RRCxelBDHCm8-12" target="PCjDmUl9RRCxelBDHCm8-63">
          <mxGeometry relative="1" as="geometry">
            <Array as="points">
              <mxPoint x="260" y="300" />
              <mxPoint x="260" y="325" />
            </Array>
          </mxGeometry>
        </mxCell>
        <mxCell id="PCjDmUl9RRCxelBDHCm8-111" style="edgeStyle=orthogonalEdgeStyle;rounded=0;orthogonalLoop=1;jettySize=auto;html=1;entryX=0;entryY=0.5;entryDx=0;entryDy=0;" edge="1" parent="1" source="PCjDmUl9RRCxelBDHCm8-12" target="PCjDmUl9RRCxelBDHCm8-57">
          <mxGeometry relative="1" as="geometry">
            <Array as="points">
              <mxPoint x="260" y="300" />
              <mxPoint x="260" y="415" />
            </Array>
          </mxGeometry>
        </mxCell>
        <mxCell id="PCjDmUl9RRCxelBDHCm8-112" style="edgeStyle=orthogonalEdgeStyle;rounded=0;orthogonalLoop=1;jettySize=auto;html=1;entryX=0;entryY=0.5;entryDx=0;entryDy=0;" edge="1" parent="1" source="PCjDmUl9RRCxelBDHCm8-12" target="PCjDmUl9RRCxelBDHCm8-60">
          <mxGeometry relative="1" as="geometry">
            <Array as="points">
              <mxPoint x="260" y="300" />
              <mxPoint x="260" y="505" />
            </Array>
          </mxGeometry>
        </mxCell>
        <mxCell id="PCjDmUl9RRCxelBDHCm8-113" style="edgeStyle=orthogonalEdgeStyle;rounded=0;orthogonalLoop=1;jettySize=auto;html=1;entryX=0;entryY=0.5;entryDx=0;entryDy=0;" edge="1" parent="1" source="PCjDmUl9RRCxelBDHCm8-12" target="PCjDmUl9RRCxelBDHCm8-38">
          <mxGeometry relative="1" as="geometry">
            <Array as="points">
              <mxPoint x="260" y="300" />
              <mxPoint x="260" y="180" />
            </Array>
          </mxGeometry>
        </mxCell>
        <mxCell id="PCjDmUl9RRCxelBDHCm8-114" style="edgeStyle=orthogonalEdgeStyle;rounded=0;orthogonalLoop=1;jettySize=auto;html=1;" edge="1" parent="1" source="PCjDmUl9RRCxelBDHCm8-12">
          <mxGeometry relative="1" as="geometry">
            <mxPoint x="260" y="300.00000000000006" as="targetPoint" />
          </mxGeometry>
        </mxCell>
        <mxCell id="PCjDmUl9RRCxelBDHCm8-12" value="&lt;div style=&quot;font-size: 14px;&quot;&gt;Взаимодействие&lt;/div&gt;&lt;div style=&quot;font-size: 14px;&quot;&gt;с елемент от интерфейса?&lt;br style=&quot;font-size: 14px;&quot;&gt;&lt;/div&gt;" style="rhombus;whiteSpace=wrap;html=1;fontSize=14;fontFamily=Times New Roman;fillColor=#dae8fc;strokeColor=#6c8ebf;verticalAlign=middle;horizontal=1;spacing=0;spacingTop=4;" vertex="1" parent="1">
          <mxGeometry x="90" y="230" width="150" height="140" as="geometry" />
        </mxCell>
        <mxCell id="PCjDmUl9RRCxelBDHCm8-36" value="&lt;div&gt;Бутон за преглед&amp;nbsp;&lt;/div&gt;&lt;div&gt;на графика&lt;/div&gt;" style="text;html=1;align=center;verticalAlign=middle;resizable=0;points=[];autosize=1;strokeColor=none;fillColor=none;fontFamily=Times New Roman;fontSize=14;" vertex="1" parent="1">
          <mxGeometry x="275" y="135" width="130" height="50" as="geometry" />
        </mxCell>
        <mxCell id="PCjDmUl9RRCxelBDHCm8-121" style="edgeStyle=orthogonalEdgeStyle;rounded=0;orthogonalLoop=1;jettySize=auto;html=1;" edge="1" parent="1" source="PCjDmUl9RRCxelBDHCm8-38">
          <mxGeometry relative="1" as="geometry">
            <mxPoint x="560" y="180" as="targetPoint" />
          </mxGeometry>
        </mxCell>
        <mxCell id="PCjDmUl9RRCxelBDHCm8-38" value="Зареждане на необработената информация от измерването" style="rounded=1;whiteSpace=wrap;html=1;fontFamily=Times New Roman;fontSize=14;fillColor=#fff2cc;strokeColor=#d6b656;" vertex="1" parent="1">
          <mxGeometry x="421" y="145" width="120" height="70" as="geometry" />
        </mxCell>
        <mxCell id="PCjDmUl9RRCxelBDHCm8-55" value="&lt;div&gt;Бутон за запис&amp;nbsp;&lt;/div&gt;&lt;div&gt;на промени&lt;br&gt;&lt;/div&gt;" style="text;html=1;align=center;verticalAlign=middle;resizable=0;points=[];autosize=1;strokeColor=none;fillColor=none;fontFamily=Times New Roman;fontSize=14;" vertex="1" parent="1">
          <mxGeometry x="285" y="370" width="110" height="50" as="geometry" />
        </mxCell>
        <mxCell id="PCjDmUl9RRCxelBDHCm8-119" style="edgeStyle=orthogonalEdgeStyle;rounded=0;orthogonalLoop=1;jettySize=auto;html=1;" edge="1" parent="1" source="PCjDmUl9RRCxelBDHCm8-57">
          <mxGeometry relative="1" as="geometry">
            <mxPoint x="580" y="560" as="targetPoint" />
          </mxGeometry>
        </mxCell>
        <mxCell id="PCjDmUl9RRCxelBDHCm8-57" value="Запис на променените настройки на каналите" style="rounded=1;whiteSpace=wrap;html=1;fontFamily=Times New Roman;fontSize=14;fillColor=#fff2cc;strokeColor=#d6b656;" vertex="1" parent="1">
          <mxGeometry x="421" y="380" width="120" height="70" as="geometry" />
        </mxCell>
        <mxCell id="PCjDmUl9RRCxelBDHCm8-59" value="&lt;div&gt;Бутон за отхвърляне&lt;/div&gt;&lt;div&gt;на промени&lt;/div&gt;" style="text;html=1;align=center;verticalAlign=middle;resizable=0;points=[];autosize=1;strokeColor=none;fillColor=none;fontFamily=Times New Roman;fontSize=14;" vertex="1" parent="1">
          <mxGeometry x="270" y="460" width="140" height="50" as="geometry" />
        </mxCell>
        <mxCell id="PCjDmUl9RRCxelBDHCm8-118" style="edgeStyle=orthogonalEdgeStyle;rounded=0;orthogonalLoop=1;jettySize=auto;html=1;" edge="1" parent="1" source="PCjDmUl9RRCxelBDHCm8-60">
          <mxGeometry relative="1" as="geometry">
            <mxPoint x="559.9999999999998" y="560" as="targetPoint" />
          </mxGeometry>
        </mxCell>
        <mxCell id="PCjDmUl9RRCxelBDHCm8-60" value="Възобновяване на записаните настройки на каналите" style="rounded=1;whiteSpace=wrap;html=1;fontFamily=Times New Roman;fontSize=14;fillColor=#fff2cc;strokeColor=#d6b656;" vertex="1" parent="1">
          <mxGeometry x="421" y="470" width="120" height="70" as="geometry" />
        </mxCell>
        <mxCell id="PCjDmUl9RRCxelBDHCm8-61" value="&lt;div&gt;Поле за активиране / &lt;br&gt;&lt;/div&gt;&lt;div&gt;настройка на канал&lt;br&gt;&lt;/div&gt;" style="text;html=1;align=center;verticalAlign=middle;resizable=0;points=[];autosize=1;strokeColor=none;fillColor=none;fontFamily=Times New Roman;fontSize=14;" vertex="1" parent="1">
          <mxGeometry x="265" y="281" width="150" height="50" as="geometry" />
        </mxCell>
        <mxCell id="PCjDmUl9RRCxelBDHCm8-62" style="edgeStyle=orthogonalEdgeStyle;rounded=0;orthogonalLoop=1;jettySize=auto;html=1;entryX=0;entryY=0.5;entryDx=0;entryDy=0;" edge="1" parent="1" source="PCjDmUl9RRCxelBDHCm8-63" target="PCjDmUl9RRCxelBDHCm8-64">
          <mxGeometry relative="1" as="geometry" />
        </mxCell>
        <mxCell id="PCjDmUl9RRCxelBDHCm8-63" value="&lt;div&gt;Отчитане на&lt;/div&gt;&lt;div&gt;новата стойност&lt;br&gt;&lt;/div&gt;" style="rounded=1;whiteSpace=wrap;html=1;fontFamily=Times New Roman;fontSize=14;fillColor=#fff2cc;strokeColor=#d6b656;" vertex="1" parent="1">
          <mxGeometry x="421" y="290" width="120" height="70" as="geometry" />
        </mxCell>
        <mxCell id="PCjDmUl9RRCxelBDHCm8-116" style="edgeStyle=orthogonalEdgeStyle;rounded=0;orthogonalLoop=1;jettySize=auto;html=1;" edge="1" parent="1" source="PCjDmUl9RRCxelBDHCm8-64">
          <mxGeometry relative="1" as="geometry">
            <mxPoint x="699.9999999999998" y="560" as="targetPoint" />
          </mxGeometry>
        </mxCell>
        <mxCell id="PCjDmUl9RRCxelBDHCm8-64" value="Активиране / деактивиране на свързани полета от интерфейса" style="rounded=1;whiteSpace=wrap;html=1;fontFamily=Times New Roman;fontSize=14;fillColor=#fff2cc;strokeColor=#d6b656;" vertex="1" parent="1">
          <mxGeometry x="561" y="290" width="120" height="70" as="geometry" />
        </mxCell>
        <mxCell id="PCjDmUl9RRCxelBDHCm8-73" style="edgeStyle=orthogonalEdgeStyle;rounded=0;orthogonalLoop=1;jettySize=auto;html=1;entryX=0;entryY=0.5;entryDx=0;entryDy=0;" edge="1" parent="1" source="PCjDmUl9RRCxelBDHCm8-65" target="PCjDmUl9RRCxelBDHCm8-66">
          <mxGeometry relative="1" as="geometry">
            <Array as="points">
              <mxPoint x="636" y="95" />
            </Array>
          </mxGeometry>
        </mxCell>
        <mxCell id="PCjDmUl9RRCxelBDHCm8-76" style="edgeStyle=orthogonalEdgeStyle;rounded=0;orthogonalLoop=1;jettySize=auto;html=1;endArrow=none;endFill=0;entryX=0;entryY=0.5;entryDx=0;entryDy=0;" edge="1" parent="1" source="PCjDmUl9RRCxelBDHCm8-65" target="PCjDmUl9RRCxelBDHCm8-90">
          <mxGeometry relative="1" as="geometry">
            <mxPoint x="821" y="180" as="targetPoint" />
          </mxGeometry>
        </mxCell>
        <mxCell id="PCjDmUl9RRCxelBDHCm8-65" value="Активиран НЧФ за измерването?" style="rhombus;whiteSpace=wrap;html=1;fontSize=14;fontFamily=Times New Roman;fillColor=#dae8fc;strokeColor=#6c8ebf;verticalAlign=middle;horizontal=1;spacing=0;spacingTop=4;" vertex="1" parent="1">
          <mxGeometry x="561" y="110" width="150" height="140" as="geometry" />
        </mxCell>
        <mxCell id="PCjDmUl9RRCxelBDHCm8-74" style="edgeStyle=orthogonalEdgeStyle;rounded=0;orthogonalLoop=1;jettySize=auto;html=1;entryX=0;entryY=0.5;entryDx=0;entryDy=0;" edge="1" parent="1" source="PCjDmUl9RRCxelBDHCm8-66" target="PCjDmUl9RRCxelBDHCm8-90">
          <mxGeometry relative="1" as="geometry">
            <mxPoint x="821" y="180" as="targetPoint" />
            <Array as="points">
              <mxPoint x="801" y="95" />
              <mxPoint x="801" y="180" />
            </Array>
          </mxGeometry>
        </mxCell>
        <mxCell id="PCjDmUl9RRCxelBDHCm8-106" style="edgeStyle=orthogonalEdgeStyle;rounded=0;orthogonalLoop=1;jettySize=auto;html=1;" edge="1" parent="1" source="PCjDmUl9RRCxelBDHCm8-66">
          <mxGeometry relative="1" as="geometry">
            <mxPoint x="801" y="180" as="targetPoint" />
            <Array as="points">
              <mxPoint x="801" y="95" />
            </Array>
          </mxGeometry>
        </mxCell>
        <mxCell id="PCjDmUl9RRCxelBDHCm8-66" value="&lt;div&gt;Прилагане на&lt;/div&gt;&lt;div&gt;НЧФ върху данните от измерването&lt;/div&gt;" style="rounded=1;whiteSpace=wrap;html=1;fontFamily=Times New Roman;fontSize=14;fillColor=#fff2cc;strokeColor=#d6b656;" vertex="1" parent="1">
          <mxGeometry x="671" y="60" width="120" height="70" as="geometry" />
        </mxCell>
        <mxCell id="PCjDmUl9RRCxelBDHCm8-75" value="Да" style="text;html=1;align=center;verticalAlign=middle;resizable=0;points=[];autosize=1;strokeColor=none;fillColor=none;fontFamily=Times New Roman;fontSize=14;" vertex="1" parent="1">
          <mxGeometry x="631" y="70" width="40" height="30" as="geometry" />
        </mxCell>
        <mxCell id="PCjDmUl9RRCxelBDHCm8-77" value="Не" style="text;html=1;align=center;verticalAlign=middle;resizable=0;points=[];autosize=1;strokeColor=none;fillColor=none;fontFamily=Times New Roman;fontSize=14;" vertex="1" parent="1">
          <mxGeometry x="711" y="155" width="40" height="30" as="geometry" />
        </mxCell>
        <mxCell id="PCjDmUl9RRCxelBDHCm8-88" style="edgeStyle=orthogonalEdgeStyle;rounded=0;orthogonalLoop=1;jettySize=auto;html=1;entryX=0;entryY=0.5;entryDx=0;entryDy=0;exitX=0.5;exitY=0;exitDx=0;exitDy=0;" edge="1" parent="1" source="PCjDmUl9RRCxelBDHCm8-90" target="PCjDmUl9RRCxelBDHCm8-92">
          <mxGeometry relative="1" as="geometry">
            <Array as="points">
              <mxPoint x="896" y="95" />
            </Array>
          </mxGeometry>
        </mxCell>
        <mxCell id="PCjDmUl9RRCxelBDHCm8-89" style="edgeStyle=orthogonalEdgeStyle;rounded=0;orthogonalLoop=1;jettySize=auto;html=1;endArrow=none;endFill=0;" edge="1" parent="1" source="PCjDmUl9RRCxelBDHCm8-90">
          <mxGeometry relative="1" as="geometry">
            <mxPoint x="1081" y="180" as="targetPoint" />
          </mxGeometry>
        </mxCell>
        <mxCell id="PCjDmUl9RRCxelBDHCm8-90" value="Активирано предвиждане на температурата?" style="rhombus;whiteSpace=wrap;html=1;fontSize=14;fontFamily=Times New Roman;fillColor=#dae8fc;strokeColor=#6c8ebf;verticalAlign=middle;horizontal=1;spacing=0;spacingTop=4;" vertex="1" parent="1">
          <mxGeometry x="821" y="110" width="150" height="140" as="geometry" />
        </mxCell>
        <mxCell id="PCjDmUl9RRCxelBDHCm8-91" style="edgeStyle=orthogonalEdgeStyle;rounded=0;orthogonalLoop=1;jettySize=auto;html=1;" edge="1" parent="1" source="PCjDmUl9RRCxelBDHCm8-92">
          <mxGeometry relative="1" as="geometry">
            <mxPoint x="1081" y="180" as="targetPoint" />
            <Array as="points">
              <mxPoint x="1061" y="95" />
              <mxPoint x="1061" y="180" />
            </Array>
          </mxGeometry>
        </mxCell>
        <mxCell id="PCjDmUl9RRCxelBDHCm8-105" style="edgeStyle=orthogonalEdgeStyle;rounded=0;orthogonalLoop=1;jettySize=auto;html=1;" edge="1" parent="1" source="PCjDmUl9RRCxelBDHCm8-92">
          <mxGeometry relative="1" as="geometry">
            <mxPoint x="1061" y="180" as="targetPoint" />
            <Array as="points">
              <mxPoint x="1061" y="95" />
            </Array>
          </mxGeometry>
        </mxCell>
        <mxCell id="PCjDmUl9RRCxelBDHCm8-92" value="Изчисляване на графика с предвидени температури" style="rounded=1;whiteSpace=wrap;html=1;fontFamily=Times New Roman;fontSize=14;fillColor=#fff2cc;strokeColor=#d6b656;" vertex="1" parent="1">
          <mxGeometry x="931" y="60" width="120" height="70" as="geometry" />
        </mxCell>
        <mxCell id="PCjDmUl9RRCxelBDHCm8-93" value="Да" style="text;html=1;align=center;verticalAlign=middle;resizable=0;points=[];autosize=1;strokeColor=none;fillColor=none;fontFamily=Times New Roman;fontSize=14;" vertex="1" parent="1">
          <mxGeometry x="891" y="70" width="40" height="30" as="geometry" />
        </mxCell>
        <mxCell id="PCjDmUl9RRCxelBDHCm8-94" value="Не" style="text;html=1;align=center;verticalAlign=middle;resizable=0;points=[];autosize=1;strokeColor=none;fillColor=none;fontFamily=Times New Roman;fontSize=14;" vertex="1" parent="1">
          <mxGeometry x="971" y="155" width="40" height="30" as="geometry" />
        </mxCell>
        <mxCell id="PCjDmUl9RRCxelBDHCm8-96" style="edgeStyle=orthogonalEdgeStyle;rounded=0;orthogonalLoop=1;jettySize=auto;html=1;entryX=0;entryY=0.5;entryDx=0;entryDy=0;" edge="1" parent="1" source="PCjDmUl9RRCxelBDHCm8-98" target="PCjDmUl9RRCxelBDHCm8-100">
          <mxGeometry relative="1" as="geometry">
            <Array as="points">
              <mxPoint x="1156" y="95" />
            </Array>
          </mxGeometry>
        </mxCell>
        <mxCell id="PCjDmUl9RRCxelBDHCm8-97" style="edgeStyle=orthogonalEdgeStyle;rounded=0;orthogonalLoop=1;jettySize=auto;html=1;endArrow=none;endFill=0;" edge="1" parent="1" source="PCjDmUl9RRCxelBDHCm8-98">
          <mxGeometry relative="1" as="geometry">
            <mxPoint x="1341" y="180" as="targetPoint" />
          </mxGeometry>
        </mxCell>
        <mxCell id="PCjDmUl9RRCxelBDHCm8-98" value="Активиран НЧФ за предвиждането?" style="rhombus;whiteSpace=wrap;html=1;fontSize=14;fontFamily=Times New Roman;fillColor=#dae8fc;strokeColor=#6c8ebf;verticalAlign=middle;horizontal=1;spacing=0;spacingTop=4;" vertex="1" parent="1">
          <mxGeometry x="1081" y="110" width="150" height="140" as="geometry" />
        </mxCell>
        <mxCell id="PCjDmUl9RRCxelBDHCm8-99" style="edgeStyle=orthogonalEdgeStyle;rounded=0;orthogonalLoop=1;jettySize=auto;html=1;" edge="1" parent="1" source="PCjDmUl9RRCxelBDHCm8-100">
          <mxGeometry relative="1" as="geometry">
            <mxPoint x="1341" y="180" as="targetPoint" />
            <Array as="points">
              <mxPoint x="1321" y="95" />
              <mxPoint x="1321" y="180" />
            </Array>
          </mxGeometry>
        </mxCell>
        <mxCell id="PCjDmUl9RRCxelBDHCm8-108" style="edgeStyle=orthogonalEdgeStyle;rounded=0;orthogonalLoop=1;jettySize=auto;html=1;" edge="1" parent="1" source="PCjDmUl9RRCxelBDHCm8-100">
          <mxGeometry relative="1" as="geometry">
            <mxPoint x="1321" y="180" as="targetPoint" />
            <Array as="points">
              <mxPoint x="1321" y="95" />
            </Array>
          </mxGeometry>
        </mxCell>
        <mxCell id="PCjDmUl9RRCxelBDHCm8-100" value="&lt;div&gt;Прилагане на&lt;/div&gt;&lt;div&gt;НЧФ върху данните от предвиждането&lt;br&gt;&lt;/div&gt;" style="rounded=1;whiteSpace=wrap;html=1;fontFamily=Times New Roman;fontSize=14;fillColor=#fff2cc;strokeColor=#d6b656;" vertex="1" parent="1">
          <mxGeometry x="1191" y="60" width="120" height="70" as="geometry" />
        </mxCell>
        <mxCell id="PCjDmUl9RRCxelBDHCm8-101" value="Да" style="text;html=1;align=center;verticalAlign=middle;resizable=0;points=[];autosize=1;strokeColor=none;fillColor=none;fontFamily=Times New Roman;fontSize=14;" vertex="1" parent="1">
          <mxGeometry x="1151" y="70" width="40" height="30" as="geometry" />
        </mxCell>
        <mxCell id="PCjDmUl9RRCxelBDHCm8-102" value="Не" style="text;html=1;align=center;verticalAlign=middle;resizable=0;points=[];autosize=1;strokeColor=none;fillColor=none;fontFamily=Times New Roman;fontSize=14;" vertex="1" parent="1">
          <mxGeometry x="1231" y="155" width="40" height="30" as="geometry" />
        </mxCell>
        <mxCell id="PCjDmUl9RRCxelBDHCm8-115" style="edgeStyle=orthogonalEdgeStyle;rounded=0;orthogonalLoop=1;jettySize=auto;html=1;entryX=0.5;entryY=1;entryDx=0;entryDy=0;exitX=0.5;exitY=1;exitDx=0;exitDy=0;" edge="1" parent="1" source="PCjDmUl9RRCxelBDHCm8-109" target="PCjDmUl9RRCxelBDHCm8-12">
          <mxGeometry relative="1" as="geometry">
            <Array as="points">
              <mxPoint x="1401" y="560" />
              <mxPoint x="165" y="560" />
            </Array>
          </mxGeometry>
        </mxCell>
        <mxCell id="PCjDmUl9RRCxelBDHCm8-120" style="edgeStyle=orthogonalEdgeStyle;rounded=0;orthogonalLoop=1;jettySize=auto;html=1;" edge="1" parent="1" source="PCjDmUl9RRCxelBDHCm8-109">
          <mxGeometry relative="1" as="geometry">
            <mxPoint x="1401" y="560" as="targetPoint" />
          </mxGeometry>
        </mxCell>
        <mxCell id="PCjDmUl9RRCxelBDHCm8-109" value="Изчертаване на графиката" style="rounded=1;whiteSpace=wrap;html=1;fontFamily=Times New Roman;fontSize=14;fillColor=#fff2cc;strokeColor=#d6b656;" vertex="1" parent="1">
          <mxGeometry x="1341" y="145" width="120" height="70" as="geometry" />
        </mxCell>
        <mxCell id="PCjDmUl9RRCxelBDHCm8-123" value="&lt;div&gt;&lt;font style=&quot;font-size: 18px;&quot;&gt;За всеки активиран канал&lt;/font&gt;&lt;/div&gt;" style="text;html=1;align=center;verticalAlign=middle;resizable=0;points=[];autosize=1;strokeColor=none;fillColor=none;fontFamily=Times New Roman;fontSize=18;fontColor=#FF0000;" vertex="1" parent="1">
          <mxGeometry x="405" y="40" width="220" height="40" as="geometry" />
        </mxCell>
      </root>
    </mxGraphModel>
  </diagram>
</mxfile>
